<svg width="32" height="32" viewBox="0 0 32 32" fill="none" xmlns="http://www.w3.org/2000/svg">
<rect width="32" height="32" rx="2" fill="black"/>
<g clip-path="url(#clip0_66_4)">
<path d="M8.75378 1.48888C8.74832 1.75777 8.74384 2.46994 8.74384 3.07148V4.16521H9.69682H10.6498V5.53165V6.8981H8.74384H6.83789V8.47298V10.0479H9.2541H11.6703V11.5219V12.9959L12.1905 12.9861L12.7108 12.9764L12.7008 13.3288C12.6953 13.5227 12.6908 14.1804 12.6908 14.7904V15.8995L10.7286 15.9034L8.76636 15.9074L8.75348 17.3703C8.7464 18.1749 8.7445 18.8436 8.74926 18.8564C8.75689 18.8768 8.98904 18.8796 10.7244 18.8796H12.6908V20.4313V21.983H10.7173H8.74384V23.4653V24.9475H9.69682H10.6498V26.4143V27.8811H11.1601H11.6703V29.3454V30.8096L18.2236 30.8199C21.8279 30.8255 26.1771 30.8302 27.8884 30.8302H31V26.3165V21.8029L26.9455 21.7926C24.7155 21.7869 22.1165 21.7823 21.1701 21.7823H19.4492L19.4392 16.7772C19.4337 14.0243 19.4292 9.34831 19.4292 6.38601V1H14.0965H8.7637L8.75378 1.48888Z" fill="#EFC418" stroke="#EFC418"/>
<path d="M1 20.4312V22.0138H3.93397H6.86793V20.4312V18.8486H3.93397H1V20.4312Z" fill="#D95098" stroke="#D95098"/>
<path d="M2.92096 14.5487V16.1313H4.89445H6.86793V14.5487V12.9661H4.89445H2.92096V14.5487Z" fill="#D95098" stroke="#D95098"/>
<path d="M1 8.47296V10.0478H2.98099H4.96198V8.47296V6.89807H2.98099H1V8.47296Z" fill="#D95098" stroke="#D95098"/>
<path d="M2.92096 2.58254V4.14971H4.90195H6.88294V2.58254V1.01538H4.90195H2.92096V2.58254Z" fill="#D95098" stroke="#D95098"/>
<path d="M3.91144 26.2754V27.8657H5.44971H6.98798V26.2754V24.6851H5.44971H3.91144V26.2754Z" fill="#D95098" stroke="#D95098"/>
<path d="M7.87341 29.4251V31H8.89392H9.91443V29.4251V27.8502H8.89392H7.87341V29.4251Z" fill="#D95098" stroke="#D95098"/>
</g>
<defs>
<clipPath id="clip0_66_4">
<rect width="30" height="30" fill="white" transform="translate(1 1)"/>
</clipPath>
</defs>
</svg>
