<svg width="32" height="32" viewBox="0 0 32 32" fill="none" xmlns="http://www.w3.org/2000/svg">
<rect width="32" height="32" rx="5" fill="black"/>
<g clip-path="url(#clip0_66_4)">
<path d="M9.4615 4.4074C9.45695 4.63147 9.45322 5.22495 9.45322 5.72624V6.63767H10.2474H11.0415V7.77638V8.91508H9.45322H7.86493V10.2275V11.5399H9.87844H11.8919V12.7682V13.9966L12.3255 13.9885L12.759 13.9803L12.7507 14.274C12.7461 14.4356 12.7424 14.9836 12.7424 15.492V16.4163L11.1072 16.4195L9.47198 16.4228L9.46125 17.6419C9.45535 18.3124 9.45377 18.8697 9.45774 18.8803C9.46409 18.8974 9.65755 18.8996 11.1037 18.8996H12.7424V20.1927V21.4858H11.0978H9.45322V22.721V23.9563H10.2474H11.0415V25.1786V26.4009H11.4667H11.8919V27.6211V28.8413L17.353 28.8499C20.3566 28.8546 23.9809 28.8585 25.407 28.8585H28V25.0971V21.3357L24.6212 21.3271C22.7629 21.3224 20.5971 21.3186 19.8084 21.3186H18.3743L18.366 17.1476C18.3614 14.8536 18.3577 10.9569 18.3577 8.48834V4H13.9137H9.46977L9.4615 4.4074Z" fill="#EFC418" stroke="#EFC418"/>
<path d="M3 20.1927V21.5116H5.44497H7.88994V20.1927V18.8739H5.44497H3V20.1927Z" fill="#D95098" stroke="#D95098"/>
<path d="M4.60083 15.2905V16.6094H6.2454H7.88997V15.2905V13.9717H6.2454H4.60083V15.2905Z" fill="#D95098" stroke="#D95098"/>
<path d="M3 10.2274V11.5398H4.65083H6.30165V10.2274V8.91504H4.65083H3V10.2274Z" fill="#D95098" stroke="#D95098"/>
<path d="M4.60083 5.31879V6.62476H6.25165H7.90248V5.31879V4.01282H6.25165H4.60083V5.31879Z" fill="#D95098" stroke="#D95098"/>
<path d="M5.42621 25.0628V26.3881H6.7081H7.98999V25.0628V23.7375H6.7081H5.42621V25.0628Z" fill="#D95098" stroke="#D95098"/>
<path d="M8.72784 27.6876V29.0001H9.57827H10.4287V27.6876V26.3752H9.57827H8.72784V27.6876Z" fill="#D95098" stroke="#D95098"/>
</g>
<defs>
<clipPath id="clip0_66_4">
<rect width="25" height="25" fill="white" transform="translate(3 4)"/>
</clipPath>
</defs>
</svg>
