<svg width="24" height="20" viewBox="0 0 24 20" fill="none" xmlns="http://www.w3.org/2000/svg">
<path d="M4.36364 13.7455C5.01818 13.3091 5.45455 12.6545 5.45455 12C5.45455 11.1273 5.01818 10.4727 4.14545 10.0364V7.41818L12 10.9091L24 5.45455L12 0L0 5.45455L2.61818 6.54545V10.0364C1.74545 10.4727 1.30909 11.1273 1.30909 12C1.30909 12.6545 1.74545 13.3091 2.4 13.7455L1.30909 17.4545C0.654545 19.6364 2.4 19.6364 2.4 19.6364H4.58182C4.58182 19.6364 6.32727 19.6364 5.67273 17.4545L4.36364 13.7455Z" fill="#D95098" fill-opacity="0.3"/>
<path d="M7.6364 11.3454C7.6364 11.5636 7.6364 11.7818 7.6364 12C7.6364 12.8727 7.20004 13.7454 6.76367 14.4C7.20004 15.2727 7.6364 16.1454 7.6364 17.4545V18.7636C8.72731 19.2 10.2546 19.6364 12 19.6364C17.4546 19.6364 19.6364 16.3636 19.6364 16.3636V9.81818L12 13.3091L7.6364 11.3454Z" fill="#D95098" fill-opacity="0.3"/>
</svg>
