<svg width="50" height="47" viewBox="0 0 50 47" fill="none" xmlns="http://www.w3.org/2000/svg">
<path d="M46.6464 11.8146C44.4108 8.18007 41.3784 5.30257 37.5484 3.1815C33.7178 1.06032 29.5359 0 24.9998 0C20.4642 0 16.281 1.06064 12.4511 3.1815C8.62076 5.30246 5.58847 8.18007 3.3529 11.8146C1.11767 15.4491 0 19.418 0 23.7211C0 28.8902 1.58934 33.5384 4.76883 37.6668C7.94797 41.7956 12.0549 44.6525 17.0894 46.238C17.6755 46.3412 18.1093 46.2686 18.3913 46.022C18.6735 45.7751 18.8144 45.466 18.8144 45.0957C18.8144 45.034 18.8089 44.4782 18.798 43.4279C18.7869 42.3775 18.7816 41.4612 18.7816 40.6793L18.0329 40.8022C17.5555 40.8852 16.9533 40.9204 16.2262 40.9104C15.4995 40.9008 14.7451 40.8285 13.964 40.6941C13.1825 40.561 12.4557 40.2521 11.7829 39.7682C11.1105 39.2843 10.6331 38.6509 10.3509 37.8689L10.0254 37.1581C9.80844 36.6849 9.46685 36.1592 9.0002 35.5831C8.53354 35.0063 8.06164 34.6153 7.58427 34.4095L7.35636 34.2547C7.20449 34.1518 7.06357 34.0277 6.93325 33.8837C6.80305 33.7397 6.70557 33.5956 6.64047 33.4513C6.57525 33.3069 6.62929 33.1884 6.80316 33.0955C6.97703 33.0025 7.29125 32.9574 7.74719 32.9574L8.39798 33.0497C8.83203 33.1322 9.36891 33.3788 10.0093 33.7909C10.6494 34.2026 11.1756 34.7379 11.588 35.3965C12.0873 36.241 12.689 36.8845 13.3946 37.3273C14.0997 37.7701 14.8105 37.9911 15.5265 37.9911C16.2425 37.9911 16.8609 37.9396 17.382 37.8372C17.9025 37.7342 18.3908 37.5794 18.8467 37.3736C19.042 35.9934 19.5738 34.9331 20.4415 34.1919C19.2047 34.0686 18.0927 33.8828 17.105 33.6358C16.1179 33.3885 15.0978 32.9872 14.0455 32.4307C12.9926 31.8749 12.1191 31.1848 11.4249 30.3615C10.7306 29.5378 10.1607 28.4564 9.7162 27.1182C9.27143 25.7796 9.04899 24.2353 9.04899 22.4851C9.04899 19.9931 9.90637 17.8724 11.6208 16.122C10.8177 14.2485 10.8935 12.1482 11.8485 9.82134C12.4778 9.6358 13.4111 9.77504 14.648 10.2382C15.885 10.7015 16.7907 11.0985 17.366 11.4276C17.9413 11.7565 18.4023 12.0353 18.7496 12.2614C20.7682 11.7263 22.8513 11.4586 24.9995 11.4586C27.1478 11.4586 29.2314 11.7263 31.2501 12.2614L32.487 11.5205C33.3329 11.0261 34.3317 10.573 35.4812 10.1611C36.6314 9.7495 37.5109 9.63613 38.1188 9.82166C39.095 12.1486 39.182 14.2488 38.3786 16.1223C40.0929 17.8728 40.9507 19.994 40.9507 22.4854C40.9507 24.2357 40.7274 25.7848 40.2833 27.1337C39.8387 28.4829 39.264 29.5632 38.5589 30.377C37.853 31.1906 36.974 31.8753 35.9217 32.431C34.8691 32.9871 33.8487 33.3884 32.8615 33.6357C31.874 33.883 30.762 34.0689 29.5252 34.1924C30.6532 35.1187 31.2174 36.5808 31.2174 38.5782V45.0949C31.2174 45.4651 31.353 45.7742 31.6246 46.0212C31.8959 46.2677 32.3242 46.3403 32.9102 46.237C37.9454 44.6518 42.0524 41.7947 45.2314 37.6659C48.4101 33.5375 50 28.8893 50 23.7203C49.9989 19.4177 48.8806 15.4491 46.6464 11.8146Z" fill="#D95098"/>
</svg>
