<?xml version="1.0" encoding="utf-8"?>
<!DOCTYPE svg PUBLIC "-//W3C//DTD SVG 20010904//EN" "http://www.w3.org/TR/2001/REC-SVG-20010904/DTD/svg10.dtd">
<svg version="1.0" xmlns="http://www.w3.org/2000/svg" width="1999pt" height="1943pt" viewBox="0 0 1999 1943" style="" preserveAspectRatio="xMidYMid meet">
<g fill="#EFC418FF" stroke="#EFC418FF">
<path d="M 516.662 31.663 C 516.298 49.078 516.000 95.203 516.000 134.163 L 516.000 205.000 579.500 205.000 L 643.000 205.000 643.000 293.500 L 643.000 382.000 516.000 382.000 L 389.000 382.000 389.000 484.000 L 389.000 586.000 550.000 586.000 L 711.000 586.000 711.000 681.467 L 711.000 776.935 745.664 776.303 L 780.329 775.672 779.664 798.498 C 779.299 811.052 779.000 853.649 779.000 893.158 L 779.000 964.993 648.250 965.246 L 517.500 965.500 516.642 1060.248 C 516.170 1112.359 516.044 1155.672 516.361 1156.498 C 516.869 1157.823 532.338 1158.000 647.969 1158.000 L 779.000 1158.000 779.000 1258.500 L 779.000 1359.000 647.500 1359.000 L 516.000 1359.000 516.000 1455.000 L 516.000 1551.000 579.500 1551.000 L 643.000 1551.000 643.000 1646.000 L 643.000 1741.000 677.000 1741.000 L 711.000 1741.000 711.000 1835.834 L 711.000 1930.667 1147.666 1931.334 C 1387.833 1931.700 1677.633 1932.000 1791.666 1932.000 L 1999.000 1932.000 1999.000 1639.666 L 1999.000 1347.332 1728.834 1346.666 C 1580.242 1346.300 1407.067 1346.000 1344.000 1346.000 L 1229.332 1346.000 1228.666 1021.834 C 1228.300 843.542 1228.000 540.692 1228.000 348.834 L 1228.000 0.000 872.662 0.000 L 517.323 0.000 516.662 31.663 "/></g>
<g fill="#D95098FF" stroke="#D95098FF">
<path d="M 0.000 1258.500 L 0.000 1361.000 195.500 1361.000 L 391.000 1361.000 391.000 1258.500 L 391.000 1156.000 195.500 1156.000 L 0.000 1156.000 0.000 1258.500 "/></g>
<g fill="#D95098FF" stroke="#D95098FF">
<path d="M 128.000 877.500 L 128.000 980.000 259.500 980.000 L 391.000 980.000 391.000 877.500 L 391.000 775.000 259.500 775.000 L 128.000 775.000 128.000 877.500 "/></g>
<g fill="#D95098FF" stroke="#D95098FF">
<path d="M 0.000 484.000 L 0.000 586.000 132.000 586.000 L 264.000 586.000 264.000 484.000 L 264.000 382.000 132.000 382.000 L 0.000 382.000 0.000 484.000 "/></g>
<g fill="#D95098FF" stroke="#D95098FF">
<path d="M 128.000 102.500 L 128.000 204.000 260.000 204.000 L 392.000 204.000 392.000 102.500 L 392.000 1.000 260.000 1.000 L 128.000 1.000 128.000 102.500 "/></g>
<g fill="#D95098FF" stroke="#D95098FF">
<path d="M 194.000 1637.000 L 194.000 1740.000 296.500 1740.000 L 399.000 1740.000 399.000 1637.000 L 399.000 1534.000 296.500 1534.000 L 194.000 1534.000 194.000 1637.000 "/></g>
<g fill="#D95098FF" stroke="#D95098FF">
<path d="M 458.000 1841.000 L 458.000 1943.000 526.000 1943.000 L 594.000 1943.000 594.000 1841.000 L 594.000 1739.000 526.000 1739.000 L 458.000 1739.000 458.000 1841.000 "/></g>
</svg>
