<svg width="24" height="23" viewBox="0 0 24 23" fill="none" xmlns="http://www.w3.org/2000/svg">
<path d="M19.5281 9.56772H15.4044C15.4397 9.34021 15.4574 9.11032 15.4574 8.8801V4.4719C15.456 3.28629 14.9845 2.14962 14.1461 1.31127C13.3077 0.472917 12.1711 0.00134087 10.9855 0H4.47189C3.28628 0.00134246 2.14962 0.472919 1.31127 1.31127C0.472916 2.14963 0.00134087 3.28629 0 4.4719V8.88008C0.00134246 10.0657 0.472918 11.2024 1.31127 12.0407C2.14962 12.8791 3.28628 13.3506 4.47189 13.352H8.5966C8.56083 13.5794 8.54278 13.8093 8.54262 14.0396V18.4478C8.54396 19.6334 9.01553 20.7701 9.85388 21.6084C10.6922 22.4468 11.8289 22.9183 13.0145 22.9197H19.5281C20.7137 22.9183 21.8504 22.4468 22.6887 21.6084C23.5271 20.7701 23.9987 19.6334 24 18.4478V14.0396C23.9987 12.854 23.5271 11.7173 22.6887 10.879C21.8504 10.0406 20.7137 9.56905 19.5281 9.56772ZM0.963794 8.88008V4.4719C0.964847 3.54182 1.33479 2.65013 1.99246 1.99247C2.65012 1.33481 3.54181 0.964871 4.47189 0.963825H10.9855C11.9156 0.964872 12.8072 1.33481 13.4649 1.99247C14.1226 2.65014 14.4925 3.54182 14.4935 4.4719V8.88008C14.4925 9.81016 14.1226 10.7018 13.4649 11.3595C12.8072 12.0172 11.9155 12.3871 10.9855 12.3882H4.47189C3.54181 12.3871 2.65013 12.0172 1.99246 11.3595C1.33479 10.7018 0.964847 9.81016 0.963794 8.88008ZM19.8895 15.1229H18.7149C18.3943 16.2674 17.7982 17.3158 16.9786 18.1765C17.3894 18.5049 17.8337 18.7892 18.304 19.0247L18.9596 19.3539C19.0162 19.3823 19.0666 19.4215 19.108 19.4694C19.1494 19.5173 19.1809 19.5729 19.2008 19.6329C19.2207 19.693 19.2286 19.7564 19.224 19.8195C19.2194 19.8827 19.2024 19.9443 19.174 20.0008C19.1456 20.0574 19.1064 20.1078 19.0585 20.1492C19.0106 20.1905 18.9551 20.2221 18.895 20.242C18.8349 20.2619 18.7715 20.2698 18.7084 20.2652C18.6453 20.2606 18.5837 20.2436 18.5271 20.2152L17.8715 19.886C17.2996 19.6003 16.762 19.2505 16.2691 18.8434C15.7778 19.2505 15.2416 19.6003 14.671 19.886L14.0155 20.2152C13.9012 20.2726 13.7689 20.2822 13.6476 20.242C13.5263 20.2018 13.4259 20.115 13.3685 20.0008C13.3112 19.8866 13.3015 19.7542 13.3417 19.6329C13.382 19.5116 13.4687 19.4112 13.5829 19.3538L14.2385 19.0247C14.7077 18.7896 15.1508 18.5056 15.5603 18.1775C15.075 17.6629 14.6653 17.0819 14.3434 16.452C14.3147 16.3956 14.2973 16.3341 14.2923 16.271C14.2874 16.2079 14.2949 16.1445 14.3144 16.0843C14.334 16.0241 14.3652 15.9684 14.4063 15.9202C14.4474 15.8721 14.4976 15.8325 14.554 15.8038C14.6104 15.7751 14.6718 15.7577 14.7349 15.7528C14.798 15.7478 14.8615 15.7553 14.9217 15.7749C14.9819 15.7944 15.0376 15.8256 15.0857 15.8667C15.1339 15.9078 15.1734 15.958 15.2022 16.0144C15.4842 16.5659 15.8435 17.0742 16.2692 17.5241C16.9216 16.8407 17.4134 16.0204 17.7086 15.1229H12.653C12.5252 15.1229 12.4026 15.0721 12.3123 14.9818C12.2219 14.8914 12.1711 14.7688 12.1711 14.641C12.1711 14.5132 12.2219 14.3906 12.3123 14.3002C12.4026 14.2099 12.5252 14.1591 12.653 14.1591H15.7894V12.7029C15.7894 12.575 15.8402 12.4525 15.9305 12.3621C16.0209 12.2717 16.1435 12.2209 16.2713 12.2209C16.3991 12.2209 16.5217 12.2717 16.6121 12.3621C16.7024 12.4525 16.7532 12.575 16.7532 12.7029V14.1591H19.8895C20.0173 14.1591 20.1399 14.2099 20.2303 14.3002C20.3207 14.3906 20.3714 14.5132 20.3714 14.641C20.3714 14.7688 20.3207 14.8914 20.2303 14.9818C20.1399 15.0721 20.0173 15.1229 19.8895 15.1229Z" fill="#D95098" fill-opacity="0.3"/>
<path d="M6.02067 4.802C5.86331 4.41277 5.53294 4.17096 5.15847 4.17096C4.78401 4.17096 4.4536 4.41277 4.29624 4.80203L2.21591 9.94833C2.19219 10.007 2.18026 10.0698 2.1808 10.1331C2.18135 10.1963 2.19435 10.2589 2.21907 10.3172C2.24378 10.3754 2.27974 10.4282 2.32487 10.4726C2.37 10.517 2.42343 10.552 2.4821 10.5757C2.54077 10.5994 2.60354 10.6114 2.66683 10.6108C2.73011 10.6103 2.79267 10.5973 2.85093 10.5726C2.90918 10.5478 2.962 10.5119 3.00637 10.4668C3.05073 10.4216 3.08578 10.3682 3.10949 10.3095L3.88942 8.38015H6.4275L7.20742 10.3095C7.23101 10.3684 7.26598 10.422 7.31033 10.4673C7.35468 10.5126 7.40754 10.5487 7.46587 10.5736C7.5242 10.5984 7.58686 10.6115 7.65026 10.6121C7.71366 10.6127 7.77656 10.6008 7.83534 10.577C7.89413 10.5533 7.94764 10.5181 7.99283 10.4737C8.03801 10.4292 8.07397 10.3762 8.09865 10.3178C8.12333 10.2594 8.13624 10.1967 8.13664 10.1333C8.13705 10.0699 8.12494 10.007 8.101 9.94833L6.02067 4.802ZM4.27904 7.41633L5.15847 5.24082L6.03789 7.41633H4.27904Z" fill="#D95098" fill-opacity="0.3"/>
</svg>
