<svg width="50" height="48" viewBox="0 0 50 48" fill="none" xmlns="http://www.w3.org/2000/svg">
<path d="M0 3.16292V44.2809C0 46.0205 1.5 47.4438 3.33333 47.4438H46.6667C48.5 47.4438 50 46.0205 50 44.2809V3.16292C50 1.42332 48.5 0 46.6667 0H3.33333C1.5 0 0 1.42332 0 3.16292ZM14.25 39.5365H8.33333V17.7124H14.25V39.5365ZM11.3333 13.3633C9.66667 13.3633 8.33333 12.1773 8.33333 10.6749C8.33333 9.17248 9.66667 7.98638 11.3333 7.98638C13 7.98638 14.3333 9.17248 14.3333 10.6749C14.25 12.1773 12.9167 13.3633 11.3333 13.3633ZM41.6667 39.5365H35.75V28.6245C35.75 26.3313 35.6667 24.8289 35.4167 24.1173C35.1667 23.4056 34.75 22.9312 34.25 22.5358C33.6667 22.1405 33 21.9823 32.25 21.9823C31.25 21.9823 30.3333 22.2195 29.5833 22.773C28.75 23.3266 28.25 24.0382 27.9167 24.908C27.5833 25.7778 27.5 27.4384 27.5 29.8106V39.5365H20.3333V17.7124H26.25V20.9544C28.25 18.5031 30.8333 17.2379 33.9167 17.2379C35.25 17.2379 36.5 17.4752 37.6667 17.9496C38.75 18.424 39.6667 18.9775 40.25 19.6892C40.8333 20.4009 41.25 21.1916 41.4167 22.1405C41.6667 23.0103 41.75 24.3545 41.75 26.015V39.5365H41.6667Z" fill="#EFC418"/>
</svg>
