<svg width="288" height="39" viewBox="0 0 288 39" fill="none" xmlns="http://www.w3.org/2000/svg">
<path d="M0.75 1.2H8V31H25.3V38H0.75V1.2ZM29.9313 26.8C29.9313 24.5667 30.4479 22.5667 31.4813 20.8C32.5479 19.0333 34.0313 17.65 35.9313 16.65C37.8313 15.6167 40.0146 15.1 42.4813 15.1C44.9813 15.1 47.1479 15.6167 48.9813 16.65C50.8146 17.65 52.2146 19.0333 53.1813 20.8C54.1813 22.5667 54.6813 24.5667 54.6813 26.8C54.6813 29.0333 54.1813 31.05 53.1813 32.85C52.2146 34.6167 50.8146 36.0167 48.9813 37.05C47.1479 38.0833 44.9479 38.6 42.3813 38.6C39.9813 38.6 37.8313 38.1333 35.9313 37.2C34.0646 36.2667 32.5979 34.9167 31.5313 33.15C30.4646 31.3833 29.9313 29.2667 29.9313 26.8ZM36.9813 26.85C36.9813 27.9833 37.2146 29.0167 37.6813 29.95C38.1479 30.85 38.7813 31.5667 39.5813 32.1C40.3813 32.6333 41.2813 32.9 42.2813 32.9C43.3813 32.9 44.3313 32.6333 45.1313 32.1C45.9313 31.5667 46.5479 30.85 46.9813 29.95C47.4146 29.0167 47.6313 27.9833 47.6313 26.85C47.6313 25.6833 47.4146 24.65 46.9813 23.75C46.5479 22.85 45.9313 22.1333 45.1313 21.6C44.3313 21.0667 43.3813 20.8 42.2813 20.8C41.2813 20.8 40.3813 21.0667 39.5813 21.6C38.7813 22.1333 38.1479 22.85 37.6813 23.75C37.2146 24.65 36.9813 25.6833 36.9813 26.85ZM58.4957 26.8C58.4957 24.5667 59.0124 22.5667 60.0457 20.8C61.1124 19.0333 62.5957 17.65 64.4957 16.65C66.3957 15.6167 68.579 15.1 71.0457 15.1C73.5457 15.1 75.7124 15.6167 77.5457 16.65C79.379 17.65 80.779 19.0333 81.7457 20.8C82.7457 22.5667 83.2457 24.5667 83.2457 26.8C83.2457 29.0333 82.7457 31.05 81.7457 32.85C80.779 34.6167 79.379 36.0167 77.5457 37.05C75.7124 38.0833 73.5124 38.6 70.9457 38.6C68.5457 38.6 66.3957 38.1333 64.4957 37.2C62.629 36.2667 61.1624 34.9167 60.0957 33.15C59.029 31.3833 58.4957 29.2667 58.4957 26.8ZM65.5457 26.85C65.5457 27.9833 65.779 29.0167 66.2457 29.95C66.7124 30.85 67.3457 31.5667 68.1457 32.1C68.9457 32.6333 69.8457 32.9 70.8457 32.9C71.9457 32.9 72.8957 32.6333 73.6957 32.1C74.4957 31.5667 75.1124 30.85 75.5457 29.95C75.979 29.0167 76.1957 27.9833 76.1957 26.85C76.1957 25.6833 75.979 24.65 75.5457 23.75C75.1124 22.85 74.4957 22.1333 73.6957 21.6C72.8957 21.0667 71.9457 20.8 70.8457 20.8C69.8457 20.8 68.9457 21.0667 68.1457 21.6C67.3457 22.1333 66.7124 22.85 66.2457 23.75C65.779 24.65 65.5457 25.6833 65.5457 26.85ZM95.1102 16.15L95.6602 20L95.5602 19.7C96.4268 18.2333 97.5102 17.1 98.8102 16.3C100.11 15.4667 101.677 15.05 103.51 15.05C104.71 15.05 105.76 15.2167 106.66 15.55C107.593 15.8833 108.377 16.3833 109.01 17.05C109.643 17.6833 110.077 18.5167 110.31 19.55L110.06 19.6C110.993 18.2333 112.11 17.1333 113.41 16.3C114.743 15.4667 116.127 15.05 117.56 15.05C119.727 15.05 121.443 15.6667 122.71 16.9C124.01 18.1 124.677 19.6667 124.71 21.6V38H117.76V24.5C117.727 23.5333 117.577 22.75 117.31 22.15C117.043 21.5167 116.427 21.1667 115.46 21.1C114.327 21.1 113.36 21.5 112.56 22.3C111.793 23.0667 111.21 24.0667 110.81 25.3C110.443 26.5 110.26 27.75 110.26 29.05V38H103.26V24.5C103.227 23.5333 103.043 22.75 102.71 22.15C102.41 21.5167 101.777 21.1667 100.81 21.1C99.7102 21.1 98.7768 21.5 98.0102 22.3C97.2768 23.0667 96.7102 24.05 96.3102 25.25C95.9435 26.45 95.7602 27.6833 95.7602 28.95V38H88.7602V16.15H95.1102ZM141.124 38.6C139.091 38.6 137.241 38.2 135.574 37.4C133.941 36.5667 132.641 35.3 131.674 33.6C130.708 31.9 130.224 29.7333 130.224 27.1C130.224 24.6333 130.724 22.5 131.724 20.7C132.724 18.9 134.041 17.5167 135.674 16.55C137.308 15.55 139.041 15.05 140.874 15.05C143.041 15.05 144.674 15.4167 145.774 16.15C146.908 16.85 147.841 17.6333 148.574 18.5L148.274 19.35L148.924 16.15H155.424V38H148.424V33.25L148.974 34.75C148.908 34.75 148.708 34.95 148.374 35.35C148.041 35.7167 147.541 36.1667 146.874 36.7C146.241 37.2 145.441 37.6333 144.474 38C143.541 38.4 142.424 38.6 141.124 38.6ZM143.124 32.9C143.958 32.9 144.708 32.7833 145.374 32.55C146.041 32.2833 146.624 31.9167 147.124 31.45C147.624 30.95 148.058 30.3333 148.424 29.6V24.25C148.158 23.5167 147.758 22.9 147.224 22.4C146.691 21.8667 146.058 21.4667 145.324 21.2C144.591 20.9 143.774 20.75 142.874 20.75C141.874 20.75 140.941 21.0167 140.074 21.55C139.241 22.05 138.574 22.75 138.074 23.65C137.574 24.55 137.324 25.5833 137.324 26.75C137.324 27.9167 137.591 28.9667 138.124 29.9C138.658 30.8333 139.358 31.5667 140.224 32.1C141.124 32.6333 142.091 32.9 143.124 32.9ZM209.202 36.1C208.302 36.8333 207.286 37.4 206.152 37.8C205.019 38.2 203.836 38.4 202.602 38.4C200.602 38.4 198.819 37.9667 197.252 37.1C195.686 36.2 194.452 34.9833 193.552 33.45C192.652 31.9167 192.202 30.1667 192.202 28.2C192.202 26.2333 192.669 24.4833 193.602 22.95C194.536 21.4167 195.769 20.2167 197.302 19.35C198.869 18.45 200.569 18 202.402 18C203.769 18 205.036 18.2 206.202 18.6C207.369 19 208.386 19.5667 209.252 20.3L208.002 21.9C207.302 21.3333 206.486 20.8667 205.552 20.5C204.619 20.1333 203.619 19.95 202.552 19.95C201.086 19.95 199.736 20.3167 198.502 21.05C197.302 21.7833 196.336 22.7833 195.602 24.05C194.902 25.2833 194.552 26.6667 194.552 28.2C194.552 29.7 194.902 31.0833 195.602 32.35C196.336 33.5833 197.319 34.5667 198.552 35.3C199.819 36.0333 201.219 36.4 202.752 36.4C203.752 36.4 204.686 36.25 205.552 35.95C206.419 35.6167 207.202 35.1833 207.902 34.65L209.202 36.1ZM213.833 28.1C213.833 26.2 214.283 24.4667 215.183 22.9C216.117 21.3333 217.367 20.1 218.933 19.2C220.533 18.2667 222.317 17.8 224.283 17.8C226.283 17.8 228.067 18.2667 229.633 19.2C231.2 20.1 232.433 21.3333 233.333 22.9C234.233 24.4667 234.683 26.2 234.683 28.1C234.683 30 234.233 31.7333 233.333 33.3C232.433 34.8667 231.183 36.1167 229.583 37.05C228.017 37.95 226.25 38.4 224.283 38.4C222.283 38.4 220.5 37.9667 218.933 37.1C217.367 36.2 216.117 34.9833 215.183 33.45C214.283 31.8833 213.833 30.1 213.833 28.1ZM216.183 28.15C216.183 29.6833 216.533 31.0833 217.233 32.35C217.967 33.5833 218.933 34.5667 220.133 35.3C221.367 36.0333 222.733 36.4 224.233 36.4C225.733 36.4 227.083 36.0333 228.283 35.3C229.517 34.5667 230.483 33.5833 231.183 32.35C231.917 31.0833 232.283 29.6833 232.283 28.15C232.283 26.6167 231.917 25.2333 231.183 24C230.483 22.7333 229.517 21.7333 228.283 21C227.083 20.2333 225.733 19.85 224.233 19.85C222.7 19.85 221.317 20.25 220.083 21.05C218.883 21.8167 217.933 22.8333 217.233 24.1C216.533 25.3667 216.183 26.7167 216.183 28.15ZM249.661 38.4C247.828 38.4 246.161 37.9667 244.661 37.1C243.161 36.2 241.961 34.9667 241.061 33.4C240.194 31.8333 239.761 30.0667 239.761 28.1C239.761 26 240.211 24.1833 241.111 22.65C242.011 21.1167 243.228 19.9333 244.761 19.1C246.328 18.2667 248.044 17.85 249.911 17.85C251.778 17.85 253.544 18.3333 255.211 19.3C256.911 20.2667 258.144 21.5333 258.911 23.1L258.511 24.2V-2.5034e-06H260.861V38H258.461V32L258.961 33.1C258.128 34.6667 256.878 35.95 255.211 36.95C253.544 37.9167 251.694 38.4 249.661 38.4ZM250.261 36.35C251.761 36.35 253.111 36.0333 254.311 35.4C255.511 34.7333 256.478 33.85 257.211 32.75C257.944 31.6167 258.361 30.35 258.461 28.95V26.45C258.228 25.1833 257.711 24.05 256.911 23.05C256.111 22.05 255.144 21.2667 254.011 20.7C252.878 20.1 251.628 19.8 250.261 19.8C248.761 19.8 247.394 20.15 246.161 20.85C244.928 21.55 243.944 22.5167 243.211 23.75C242.478 24.9833 242.111 26.4167 242.111 28.05C242.111 29.5833 242.478 30.9833 243.211 32.25C243.944 33.4833 244.928 34.4833 246.161 35.25C247.428 35.9833 248.794 36.35 250.261 36.35ZM278.237 38.4C276.204 38.4 274.404 37.95 272.837 37.05C271.27 36.15 270.037 34.9333 269.137 33.4C268.27 31.8333 267.837 30.0833 267.837 28.15C267.837 26.25 268.304 24.5167 269.237 22.95C270.17 21.3833 271.42 20.1333 272.987 19.2C274.587 18.2667 276.354 17.8 278.287 17.8C280.62 17.8 282.57 18.4833 284.137 19.85C285.737 21.2167 286.887 23 287.587 25.2L270.487 31.8L269.787 30.1L285.437 24L284.937 24.7C284.37 23.3667 283.504 22.2167 282.337 21.25C281.204 20.2833 279.804 19.8 278.137 19.8C276.637 19.8 275.287 20.1667 274.087 20.9C272.887 21.6333 271.92 22.6167 271.187 23.85C270.487 25.0833 270.137 26.4833 270.137 28.05C270.137 29.5167 270.47 30.8833 271.137 32.15C271.837 33.4167 272.804 34.4333 274.037 35.2C275.27 35.9667 276.687 36.35 278.287 36.35C279.354 36.35 280.37 36.15 281.337 35.75C282.337 35.35 283.22 34.8333 283.987 34.2L285.187 35.9C284.254 36.6333 283.17 37.2333 281.937 37.7C280.737 38.1667 279.504 38.4 278.237 38.4Z" fill="#F1F1F1"/>
<path d="M164.137 31.95H184.537V38H164.137V31.95Z" fill="#EFC418"/>
</svg>
