<svg width="144" height="20" viewBox="0 0 144 20" fill="none" xmlns="http://www.w3.org/2000/svg">
<path d="M0.375 0.599998H4V15.5H12.65V19H0.375V0.599998ZM14.9656 13.4C14.9656 12.2833 15.224 11.2833 15.7406 10.4C16.274 9.51667 17.0156 8.825 17.9656 8.325C18.9156 7.80833 20.0073 7.55 21.2406 7.55C22.4906 7.55 23.574 7.80833 24.4906 8.325C25.4073 8.825 26.1073 9.51667 26.5906 10.4C27.0906 11.2833 27.3406 12.2833 27.3406 13.4C27.3406 14.5167 27.0906 15.525 26.5906 16.425C26.1073 17.3083 25.4073 18.0083 24.4906 18.525C23.574 19.0417 22.474 19.3 21.1906 19.3C19.9906 19.3 18.9156 19.0667 17.9656 18.6C17.0323 18.1333 16.299 17.4583 15.7656 16.575C15.2323 15.6917 14.9656 14.6333 14.9656 13.4ZM18.4906 13.425C18.4906 13.9917 18.6073 14.5083 18.8406 14.975C19.074 15.425 19.3906 15.7833 19.7906 16.05C20.1906 16.3167 20.6406 16.45 21.1406 16.45C21.6906 16.45 22.1656 16.3167 22.5656 16.05C22.9656 15.7833 23.274 15.425 23.4906 14.975C23.7073 14.5083 23.8156 13.9917 23.8156 13.425C23.8156 12.8417 23.7073 12.325 23.4906 11.875C23.274 11.425 22.9656 11.0667 22.5656 10.8C22.1656 10.5333 21.6906 10.4 21.1406 10.4C20.6406 10.4 20.1906 10.5333 19.7906 10.8C19.3906 11.0667 19.074 11.425 18.8406 11.875C18.6073 12.325 18.4906 12.8417 18.4906 13.425ZM29.2479 13.4C29.2479 12.2833 29.5062 11.2833 30.0229 10.4C30.5562 9.51667 31.2979 8.825 32.2479 8.325C33.1979 7.80833 34.2895 7.55 35.5229 7.55C36.7729 7.55 37.8562 7.80833 38.7729 8.325C39.6895 8.825 40.3895 9.51667 40.8729 10.4C41.3729 11.2833 41.6229 12.2833 41.6229 13.4C41.6229 14.5167 41.3729 15.525 40.8729 16.425C40.3895 17.3083 39.6895 18.0083 38.7729 18.525C37.8562 19.0417 36.7562 19.3 35.4729 19.3C34.2729 19.3 33.1979 19.0667 32.2479 18.6C31.3145 18.1333 30.5812 17.4583 30.0479 16.575C29.5145 15.6917 29.2479 14.6333 29.2479 13.4ZM32.7729 13.425C32.7729 13.9917 32.8895 14.5083 33.1229 14.975C33.3562 15.425 33.6729 15.7833 34.0729 16.05C34.4729 16.3167 34.9229 16.45 35.4229 16.45C35.9729 16.45 36.4479 16.3167 36.8479 16.05C37.2479 15.7833 37.5562 15.425 37.7729 14.975C37.9895 14.5083 38.0979 13.9917 38.0979 13.425C38.0979 12.8417 37.9895 12.325 37.7729 11.875C37.5562 11.425 37.2479 11.0667 36.8479 10.8C36.4479 10.5333 35.9729 10.4 35.4229 10.4C34.9229 10.4 34.4729 10.5333 34.0729 10.8C33.6729 11.0667 33.3562 11.425 33.1229 11.875C32.8895 12.325 32.7729 12.8417 32.7729 13.425ZM47.5551 8.075L47.8301 10L47.7801 9.85C48.2134 9.11667 48.7551 8.55 49.4051 8.15C50.0551 7.73333 50.8384 7.525 51.7551 7.525C52.3551 7.525 52.8801 7.60833 53.3301 7.775C53.7967 7.94167 54.1884 8.19167 54.5051 8.525C54.8217 8.84167 55.0384 9.25833 55.1551 9.775L55.0301 9.8C55.4967 9.11667 56.0551 8.56667 56.7051 8.15C57.3717 7.73333 58.0634 7.525 58.7801 7.525C59.8634 7.525 60.7217 7.83333 61.3551 8.45C62.0051 9.05 62.3384 9.83333 62.3551 10.8V19H58.8801V12.25C58.8634 11.7667 58.7884 11.375 58.6551 11.075C58.5217 10.7583 58.2134 10.5833 57.7301 10.55C57.1634 10.55 56.6801 10.75 56.2801 11.15C55.8967 11.5333 55.6051 12.0333 55.4051 12.65C55.2217 13.25 55.1301 13.875 55.1301 14.525V19H51.6301V12.25C51.6134 11.7667 51.5217 11.375 51.3551 11.075C51.2051 10.7583 50.8884 10.5833 50.4051 10.55C49.8551 10.55 49.3884 10.75 49.0051 11.15C48.6384 11.5333 48.3551 12.025 48.1551 12.625C47.9717 13.225 47.8801 13.8417 47.8801 14.475V19H44.3801V8.075H47.5551ZM70.5621 19.3C69.5454 19.3 68.6204 19.1 67.7871 18.7C66.9704 18.2833 66.3204 17.65 65.8371 16.8C65.3538 15.95 65.1121 14.8667 65.1121 13.55C65.1121 12.3167 65.3621 11.25 65.8621 10.35C66.3621 9.45 67.0204 8.75833 67.8371 8.275C68.6538 7.775 69.5204 7.525 70.4371 7.525C71.5204 7.525 72.3371 7.70833 72.8871 8.075C73.4538 8.425 73.9204 8.81667 74.2871 9.25L74.1371 9.675L74.4621 8.075H77.7121V19H74.2121V16.625L74.4871 17.375C74.4538 17.375 74.3538 17.475 74.1871 17.675C74.0204 17.8583 73.7704 18.0833 73.4371 18.35C73.1204 18.6 72.7204 18.8167 72.2371 19C71.7704 19.2 71.2121 19.3 70.5621 19.3ZM71.5621 16.45C71.9788 16.45 72.3538 16.3917 72.6871 16.275C73.0204 16.1417 73.3121 15.9583 73.5621 15.725C73.8121 15.475 74.0288 15.1667 74.2121 14.8V12.125C74.0788 11.7583 73.8788 11.45 73.6121 11.2C73.3454 10.9333 73.0288 10.7333 72.6621 10.6C72.2954 10.45 71.8871 10.375 71.4371 10.375C70.9371 10.375 70.4704 10.5083 70.0371 10.775C69.6204 11.025 69.2871 11.375 69.0371 11.825C68.7871 12.275 68.6621 12.7917 68.6621 13.375C68.6621 13.9583 68.7954 14.4833 69.0621 14.95C69.3288 15.4167 69.6788 15.7833 70.1121 16.05C70.5621 16.3167 71.0454 16.45 71.5621 16.45ZM82.0686 15.975H92.2686V19H82.0686V15.975ZM104.601 18.05C104.151 18.4167 103.643 18.7 103.076 18.9C102.51 19.1 101.918 19.2 101.301 19.2C100.301 19.2 99.4095 18.9833 98.6262 18.55C97.8428 18.1 97.2262 17.4917 96.7762 16.725C96.3262 15.9583 96.1012 15.0833 96.1012 14.1C96.1012 13.1167 96.3345 12.2417 96.8012 11.475C97.2678 10.7083 97.8845 10.1083 98.6512 9.675C99.4345 9.225 100.285 9 101.201 9C101.885 9 102.518 9.1 103.101 9.3C103.685 9.5 104.193 9.78333 104.626 10.15L104.001 10.95C103.651 10.6667 103.243 10.4333 102.776 10.25C102.31 10.0667 101.81 9.975 101.276 9.975C100.543 9.975 99.8678 10.1583 99.2512 10.525C98.6512 10.8917 98.1678 11.3917 97.8012 12.025C97.4512 12.6417 97.2762 13.3333 97.2762 14.1C97.2762 14.85 97.4512 15.5417 97.8012 16.175C98.1678 16.7917 98.6595 17.2833 99.2762 17.65C99.9095 18.0167 100.61 18.2 101.376 18.2C101.876 18.2 102.343 18.125 102.776 17.975C103.21 17.8083 103.601 17.5917 103.951 17.325L104.601 18.05ZM106.917 14.05C106.917 13.1 107.142 12.2333 107.592 11.45C108.058 10.6667 108.683 10.05 109.467 9.6C110.267 9.13333 111.158 8.9 112.142 8.9C113.142 8.9 114.033 9.13333 114.817 9.6C115.6 10.05 116.217 10.6667 116.667 11.45C117.117 12.2333 117.342 13.1 117.342 14.05C117.342 15 117.117 15.8667 116.667 16.65C116.217 17.4333 115.592 18.0583 114.792 18.525C114.008 18.975 113.125 19.2 112.142 19.2C111.142 19.2 110.25 18.9833 109.467 18.55C108.683 18.1 108.058 17.4917 107.592 16.725C107.142 15.9417 106.917 15.05 106.917 14.05ZM108.092 14.075C108.092 14.8417 108.267 15.5417 108.617 16.175C108.983 16.7917 109.467 17.2833 110.067 17.65C110.683 18.0167 111.367 18.2 112.117 18.2C112.867 18.2 113.542 18.0167 114.142 17.65C114.758 17.2833 115.242 16.7917 115.592 16.175C115.958 15.5417 116.142 14.8417 116.142 14.075C116.142 13.3083 115.958 12.6167 115.592 12C115.242 11.3667 114.758 10.8667 114.142 10.5C113.542 10.1167 112.867 9.925 112.117 9.925C111.35 9.925 110.658 10.125 110.042 10.525C109.442 10.9083 108.967 11.4167 108.617 12.05C108.267 12.6833 108.092 13.3583 108.092 14.075ZM124.83 19.2C123.914 19.2 123.08 18.9833 122.33 18.55C121.58 18.1 120.98 17.4833 120.53 16.7C120.097 15.9167 119.88 15.0333 119.88 14.05C119.88 13 120.105 12.0917 120.555 11.325C121.005 10.5583 121.614 9.96667 122.38 9.55C123.164 9.13333 124.022 8.925 124.955 8.925C125.889 8.925 126.772 9.16667 127.605 9.65C128.455 10.1333 129.072 10.7667 129.455 11.55L129.255 12.1V-1.2517e-06H130.43V19H129.23V16L129.48 16.55C129.064 17.3333 128.439 17.975 127.605 18.475C126.772 18.9583 125.847 19.2 124.83 19.2ZM125.13 18.175C125.88 18.175 126.555 18.0167 127.155 17.7C127.755 17.3667 128.239 16.925 128.605 16.375C128.972 15.8083 129.18 15.175 129.23 14.475V13.225C129.114 12.5917 128.855 12.025 128.455 11.525C128.055 11.025 127.572 10.6333 127.005 10.35C126.439 10.05 125.814 9.9 125.13 9.9C124.38 9.9 123.697 10.075 123.08 10.425C122.464 10.775 121.972 11.2583 121.605 11.875C121.239 12.4917 121.055 13.2083 121.055 14.025C121.055 14.7917 121.239 15.4917 121.605 16.125C121.972 16.7417 122.464 17.2417 123.08 17.625C123.714 17.9917 124.397 18.175 125.13 18.175ZM139.119 19.2C138.102 19.2 137.202 18.975 136.419 18.525C135.635 18.075 135.019 17.4667 134.569 16.7C134.135 15.9167 133.919 15.0417 133.919 14.075C133.919 13.125 134.152 12.2583 134.619 11.475C135.085 10.6917 135.71 10.0667 136.494 9.6C137.294 9.13333 138.177 8.9 139.144 8.9C140.31 8.9 141.285 9.24167 142.069 9.925C142.869 10.6083 143.444 11.5 143.794 12.6L135.244 15.9L134.894 15.05L142.719 12L142.469 12.35C142.185 11.6833 141.752 11.1083 141.169 10.625C140.602 10.1417 139.902 9.9 139.069 9.9C138.319 9.9 137.644 10.0833 137.044 10.45C136.444 10.8167 135.96 11.3083 135.594 11.925C135.244 12.5417 135.069 13.2417 135.069 14.025C135.069 14.7583 135.235 15.4417 135.569 16.075C135.919 16.7083 136.402 17.2167 137.019 17.6C137.635 17.9833 138.344 18.175 139.144 18.175C139.677 18.175 140.185 18.075 140.669 17.875C141.169 17.675 141.61 17.4167 141.994 17.1L142.594 17.95C142.127 18.3167 141.585 18.6167 140.969 18.85C140.369 19.0833 139.752 19.2 139.119 19.2Z" fill="#A3A3A3"/>
</svg>
