<svg width="48" height="48" viewBox="0 0 48 48" fill="none" xmlns="http://www.w3.org/2000/svg">
<g opacity="0.5">
<path opacity="0.15" d="M24 47C30.9036 47 36.5 46.3284 36.5 45.5C36.5 44.6716 30.9036 44 24 44C17.0964 44 11.5 44.6716 11.5 45.5C11.5 46.3284 17.0964 47 24 47Z" fill="#45413C"/>
<path d="M33.4599 19.26L33.3299 22.52L22.1099 11.29C21.6724 10.8272 21.0798 10.5418 20.4452 10.4883C19.8107 10.4348 19.1786 10.617 18.6699 11C18.3983 11.2199 18.176 11.4944 18.0175 11.8059C17.859 12.1173 17.7678 12.4586 17.7499 12.8076C17.7319 13.1566 17.7877 13.5055 17.9135 13.8315C18.0392 14.1575 18.2322 14.4534 18.4799 14.7L16.8899 13.11C16.4045 12.6047 15.7457 12.3021 15.0462 12.2631C14.3467 12.2241 13.6583 12.4517 13.1199 12.9C12.851 13.1425 12.6343 13.4373 12.4829 13.7662C12.3315 14.0952 12.2486 14.4515 12.2392 14.8135C12.2299 15.1755 12.2943 15.5356 12.4285 15.872C12.5627 16.2083 12.7639 16.5139 13.0199 16.77L12.9999 16.72C12.6168 16.3292 12.1174 16.0731 11.5765 15.9902C11.0356 15.9072 10.4824 16.0019 9.99988 16.26C9.66565 16.4504 9.37987 16.7154 9.1648 17.0344C8.94972 17.3533 8.81115 17.7176 8.75987 18.0988C8.70858 18.4801 8.74597 18.868 8.86912 19.2324C8.99227 19.5969 9.19785 19.928 9.46988 20.2L12.4699 23.2C12.2537 22.9841 11.9947 22.8159 11.7096 22.706C11.4245 22.5962 11.1196 22.5473 10.8144 22.5623C10.5093 22.5774 10.2107 22.6562 9.93778 22.7935C9.66489 22.9309 9.42375 23.1239 9.22988 23.36C8.8987 23.8039 8.74041 24.3531 8.78458 24.9052C8.82874 25.4573 9.07234 25.9744 9.46988 26.36L21.9999 39C22.8774 39.8817 23.9214 40.5802 25.0711 41.055C26.2209 41.5298 27.4535 41.7714 28.6974 41.7659C29.9414 41.7603 31.1718 41.5076 32.3172 41.0225C33.4627 40.5374 34.5003 39.8295 35.3699 38.94C36.7417 37.5083 37.8046 35.81 38.4927 33.9504C39.1808 32.0909 39.4794 30.1097 39.3699 28.13L38.9999 16C38.9797 15.7276 38.857 15.4731 38.6566 15.2875C38.4562 15.102 38.193 14.9992 37.9199 15C36.7701 14.9963 35.6636 15.4379 34.8322 16.232C34.0008 17.0261 33.509 18.1113 33.4599 19.26Z" fill="#FFCEBF"/>
<path d="M33.3299 22.52L22.1099 11.29C21.6725 10.8272 21.0799 10.5418 20.4453 10.4883C19.8107 10.4348 19.1787 10.617 18.6699 11C18.417 11.2054 18.2071 11.4587 18.0521 11.7453C17.8972 12.0319 17.8002 12.3463 17.7668 12.6704C17.7333 12.9945 17.7641 13.322 17.8573 13.6342C17.9505 13.9464 18.1043 14.2372 18.3099 14.49C18.4115 14.35 18.5328 14.2254 18.6699 14.12C19.1763 13.7345 19.8069 13.5489 20.4414 13.5987C21.0759 13.6485 21.6699 13.9302 22.1099 14.39L31.7699 24.06L33.3299 22.52Z" fill="#FFDCD1"/>
<path d="M39.0898 19.12L38.9998 16C38.9796 15.7277 38.857 15.4731 38.6566 15.2875C38.4562 15.102 38.1929 14.9993 37.9198 15C36.7668 14.9993 35.6586 15.4461 34.8285 16.2463C33.9984 17.0466 33.5113 18.1377 33.4698 19.29L33.3398 22.55L33.4698 22.41C33.5138 21.2586 34.0016 20.1688 34.8312 19.3691C35.6607 18.5694 36.7676 18.1218 37.9198 18.12C38.2028 18.117 38.4773 18.2167 38.6924 18.4005C38.9075 18.5844 39.0487 18.84 39.0898 19.12Z" fill="#FFDCD1"/>
<path d="M33.4599 19.26L33.3299 22.52L22.1099 11.29C21.6724 10.8272 21.0798 10.5418 20.4452 10.4883C19.8107 10.4348 19.1786 10.617 18.6699 11C18.3983 11.2199 18.176 11.4944 18.0175 11.8059C17.859 12.1173 17.7678 12.4586 17.7499 12.8076C17.7319 13.1566 17.7877 13.5055 17.9135 13.8315C18.0392 14.1575 18.2322 14.4534 18.4799 14.7L16.8899 13.11C16.4045 12.6047 15.7457 12.3021 15.0462 12.2631C14.3467 12.2241 13.6583 12.4517 13.1199 12.9C12.851 13.1425 12.6343 13.4373 12.4829 13.7662C12.3315 14.0952 12.2486 14.4515 12.2392 14.8135C12.2299 15.1755 12.2943 15.5356 12.4285 15.872C12.5627 16.2083 12.7639 16.5139 13.0199 16.77L12.9999 16.72C12.6168 16.3292 12.1174 16.0731 11.5765 15.9902C11.0356 15.9072 10.4824 16.0019 9.99988 16.26C9.66565 16.4504 9.37987 16.7154 9.1648 17.0344C8.94972 17.3533 8.81115 17.7176 8.75987 18.0988C8.70858 18.4801 8.74597 18.868 8.86912 19.2324C8.99227 19.5969 9.19785 19.928 9.46988 20.2L12.4699 23.2C12.2537 22.9841 11.9947 22.8159 11.7096 22.706C11.4245 22.5962 11.1196 22.5473 10.8144 22.5623C10.5093 22.5774 10.2107 22.6562 9.93778 22.7935C9.66489 22.9309 9.42375 23.1239 9.22988 23.36C8.8987 23.8039 8.74041 24.3531 8.78458 24.9052C8.82874 25.4573 9.07234 25.9744 9.46988 26.36L21.9999 39C22.8774 39.8817 23.9214 40.5802 25.0711 41.055C26.2209 41.5298 27.4535 41.7714 28.6974 41.7659C29.9414 41.7603 31.1718 41.5076 32.3172 41.0225C33.4627 40.5374 34.5003 39.8295 35.3699 38.94C36.7417 37.5083 37.8046 35.81 38.4927 33.9504C39.1808 32.0909 39.4794 30.1097 39.3699 28.13L38.9999 16C38.9797 15.7276 38.857 15.4731 38.6566 15.2875C38.4562 15.102 38.193 14.9992 37.9199 15V15C36.7701 14.9963 35.6636 15.4379 34.8322 16.232C34.0008 17.0261 33.509 18.1113 33.4599 19.26V19.26Z" stroke="#45413C" stroke-linecap="round" stroke-linejoin="round"/>
<path d="M12.3401 23.1801L18.4001 29.2301" stroke="#45413C" stroke-linecap="round" stroke-linejoin="round"/>
<path d="M13.02 16.78L21.93 25.69" stroke="#45413C" stroke-linecap="round" stroke-linejoin="round"/>
<path d="M18.48 14.72L25.69 21.94" stroke="#45413C" stroke-linecap="round" stroke-linejoin="round"/>
<path d="M33.33 22.52L29.76 26.09C29.2021 26.6473 28.7596 27.309 28.4576 28.0374C28.1557 28.7658 28.0002 29.5465 28.0002 30.335C28.0002 31.1235 28.1557 31.9043 28.4576 32.6327C28.7596 33.361 29.2021 34.0228 29.76 34.58V34.58" stroke="#45413C" stroke-linecap="round" stroke-linejoin="round"/>
<path d="M24.1101 8.76001C25.6991 9.03137 27.187 9.72178 28.4201 10.76C29.6421 11.8452 30.5707 13.2209 31.1201 14.76" stroke="#45413C" stroke-linecap="round" stroke-linejoin="round"/>
<path d="M24.6799 6.08997C26.6382 6.40501 28.4757 7.24087 29.9999 8.50997C31.5114 9.8431 32.6576 11.54 33.3299 13.44" stroke="#45413C" stroke-linecap="round" stroke-linejoin="round"/>
<path d="M4.65 24.24C4.49165 25.8393 4.76443 27.4518 5.44 28.91C6.17265 30.3686 7.26333 31.6176 8.60999 32.54" stroke="#45413C" stroke-linecap="round" stroke-linejoin="round"/>
<path d="M1.91996 24.1C1.7293 26.0782 2.07472 28.0713 2.91996 29.87C3.82541 31.6713 5.17013 33.2155 6.82996 34.36" stroke="#45413C" stroke-linecap="round" stroke-linejoin="round"/>
</g>
</svg>
